<?xml version="1.0" encoding="utf-8"?>
<!-- Generator: Adobe Illustrator 25.2.0, SVG Export Plug-In . SVG Version: 6.00 Build 0)  -->
<svg version="1.1" xmlns="http://www.w3.org/2000/svg" xmlns:xlink="http://www.w3.org/1999/xlink" x="0px" y="0px"
	 viewBox="0 0 706.15 144.88" style="enable-background:new 0 0 706.15 144.88;" xml:space="preserve">
<style type="text/css">
	.st0{display:none;}
	.st1{display:inline;fill:#1894CC;}
	.st2{display:inline;}
	.st3{fill:#040000;}
	.st4{fill:#1894CC;}
	.st5{fill:#FFFFFF;}
</style>
<g id="背景青" class="st0">
	<rect x="-55.28" y="-234.02" class="st1" width="817.01" height="617.01"/>
</g>
<g id="元データ" class="st0">
	<g id="IoTFarm" class="st2">
		<rect x="5.15" y="4.08" class="st3" width="34.85" height="139.41"/>
		<path class="st3" d="M100.97,43.81c-27.9,0-50.53,22.61-50.53,50.53c0,27.9,22.63,50.53,50.53,50.53
			c27.92,0,50.55-22.63,50.55-50.53C151.53,66.42,128.9,43.81,100.97,43.81z M100.97,113.52c-10.58,0-19.15-8.59-19.15-19.17
			s8.57-19.17,19.15-19.17c10.6,0,19.17,8.59,19.17,19.17S111.58,113.52,100.97,113.52z"/>
		<polygon class="st3" points="127.11,4.08 231.67,4.08 231.67,38.93 196.82,38.93 196.82,143.49 161.97,143.49 161.97,38.93 
			127.11,38.93 		"/>
		<path class="st3" d="M282.21,66.82h59.25v31.36h-59.25v45.31h-34.85V66.82c0-34.66,28.08-62.74,62.74-62.74h41.82v34.85h-41.82
			C294.7,38.93,282.21,51.4,282.21,66.82z"/>
		<path class="st3" d="M452.98,94.35v49.14h-31.36V94.35c0-10.58-8.59-19.17-19.17-19.17c-10.58,0-19.17,8.59-19.17,19.17
			s8.59,19.17,19.17,19.17c3.03,0,6.02-0.73,8.71-2.1v32.7c-2.87,0.52-5.79,0.77-8.71,0.77c-27.9,0-50.53-22.63-50.53-50.53
			c0-27.92,22.63-50.53,50.53-50.53C430.35,43.81,452.98,66.42,452.98,94.35z"/>
		<path class="st3" d="M522.69,44.56v32.71c-9.43-4.81-20.97-1.07-25.78,8.36c-1.39,2.69-2.1,5.68-2.1,8.71v49.14h-31.36V94.35
			c0-2.92,0.25-5.84,0.75-8.71C469,58.14,495.19,39.75,522.69,44.56z"/>
		<path class="st3" d="M701.3,94.35v49.14h-31.36V94.35c0-10.58-8.59-19.17-19.17-19.17s-19.17,8.59-19.17,19.17v49.14h-31.36V94.35
			c0-10.58-8.59-19.17-19.17-19.17s-19.17,8.59-19.17,19.17v49.14h-31.36V94.35c0-12.97,4.99-25.46,13.93-34.85
			c19.26-20.21,51.25-20.99,71.45-1.75c9.39-8.94,21.88-13.93,34.85-13.93C678.67,43.81,701.3,66.42,701.3,94.35z"/>
	</g>
</g>
<g id="青ロゴ">
	<g id="IoTFarm_1_">
		<rect x="5.15" y="4.08" class="st4" width="34.85" height="139.41"/>
		<path class="st4" d="M100.97,43.81c-27.9,0-50.53,22.61-50.53,50.53c0,27.9,22.63,50.53,50.53,50.53
			c27.92,0,50.55-22.63,50.55-50.53C151.53,66.42,128.9,43.81,100.97,43.81z M100.97,113.52c-10.58,0-19.15-8.59-19.15-19.17
			s8.57-19.17,19.15-19.17c10.6,0,19.17,8.59,19.17,19.17S111.58,113.52,100.97,113.52z"/>
		<polygon class="st4" points="127.11,4.08 231.67,4.08 231.67,38.93 196.82,38.93 196.82,143.49 161.97,143.49 161.97,38.93 
			127.11,38.93 		"/>
		<path class="st4" d="M282.21,66.82h59.25v31.36h-59.25v45.31h-34.85V66.82c0-34.66,28.08-62.74,62.74-62.74h41.82v34.85h-41.82
			C294.7,38.93,282.21,51.4,282.21,66.82z"/>
		<path class="st4" d="M452.98,94.35v49.14h-31.36V94.35c0-10.58-8.59-19.17-19.17-19.17c-10.58,0-19.17,8.59-19.17,19.17
			s8.59,19.17,19.17,19.17c3.03,0,6.02-0.73,8.71-2.1v32.7c-2.87,0.52-5.79,0.77-8.71,0.77c-27.9,0-50.53-22.63-50.53-50.53
			c0-27.92,22.63-50.53,50.53-50.53C430.35,43.81,452.98,66.42,452.98,94.35z"/>
		<path class="st4" d="M522.69,44.56v32.71c-9.43-4.81-20.97-1.07-25.78,8.36c-1.39,2.69-2.1,5.68-2.1,8.71v49.14h-31.36V94.35
			c0-2.92,0.25-5.84,0.75-8.71C469,58.14,495.19,39.75,522.69,44.56z"/>
		<path class="st4" d="M701.3,94.35v49.14h-31.36V94.35c0-10.58-8.59-19.17-19.17-19.17s-19.17,8.59-19.17,19.17v49.14h-31.36V94.35
			c0-10.58-8.59-19.17-19.17-19.17s-19.17,8.59-19.17,19.17v49.14h-31.36V94.35c0-12.97,4.99-25.46,13.93-34.85
			c19.26-20.21,51.25-20.99,71.45-1.75c9.39-8.94,21.88-13.93,34.85-13.93C678.67,43.81,701.3,66.42,701.3,94.35z"/>
	</g>
</g>
<g id="白ロゴ" class="st0">
	<g id="IoTFarm_2_" class="st2">
		<rect x="5.15" y="4.08" class="st5" width="34.85" height="139.41"/>
		<path class="st5" d="M100.97,43.81c-27.9,0-50.53,22.61-50.53,50.53c0,27.9,22.63,50.53,50.53,50.53
			c27.92,0,50.55-22.63,50.55-50.53C151.53,66.42,128.9,43.81,100.97,43.81z M100.97,113.52c-10.58,0-19.15-8.59-19.15-19.17
			s8.57-19.17,19.15-19.17c10.6,0,19.17,8.59,19.17,19.17S111.58,113.52,100.97,113.52z"/>
		<polygon class="st5" points="127.11,4.08 231.67,4.08 231.67,38.93 196.82,38.93 196.82,143.49 161.97,143.49 161.97,38.93 
			127.11,38.93 		"/>
		<path class="st5" d="M282.21,66.82h59.25v31.36h-59.25v45.31h-34.85V66.82c0-34.66,28.08-62.74,62.74-62.74h41.82v34.85h-41.82
			C294.7,38.93,282.21,51.4,282.21,66.82z"/>
		<path class="st5" d="M452.98,94.35v49.14h-31.36V94.35c0-10.58-8.59-19.17-19.17-19.17c-10.58,0-19.17,8.59-19.17,19.17
			s8.59,19.17,19.17,19.17c3.03,0,6.02-0.73,8.71-2.1v32.7c-2.87,0.52-5.79,0.77-8.71,0.77c-27.9,0-50.53-22.63-50.53-50.53
			c0-27.92,22.63-50.53,50.53-50.53C430.35,43.81,452.98,66.42,452.98,94.35z"/>
		<path class="st5" d="M522.69,44.56v32.71c-9.43-4.81-20.97-1.07-25.78,8.36c-1.39,2.69-2.1,5.68-2.1,8.71v49.14h-31.36V94.35
			c0-2.92,0.25-5.84,0.75-8.71C469,58.14,495.19,39.75,522.69,44.56z"/>
		<path class="st5" d="M701.3,94.35v49.14h-31.36V94.35c0-10.58-8.59-19.17-19.17-19.17s-19.17,8.59-19.17,19.17v49.14h-31.36V94.35
			c0-10.58-8.59-19.17-19.17-19.17s-19.17,8.59-19.17,19.17v49.14h-31.36V94.35c0-12.97,4.99-25.46,13.93-34.85
			c19.26-20.21,51.25-20.99,71.45-1.75c9.39-8.94,21.88-13.93,34.85-13.93C678.67,43.81,701.3,66.42,701.3,94.35z"/>
	</g>
</g>
</svg>
